<svg xmlns="http://www.w3.org/2000/svg" version="1.1" 
xmlns:xlink="http://www.w3.org/1999/xlink" 
xmlns:svgjs="http://svgjs.com/svgjs" width="317.2" height="58.6" x="0" y="0" viewBox="0 0 
370 68" xml:space="preserve" class="css-1j8o68f"><defs 
id="SvgjsDefs10198"></defs><g id="SvgjsG10199" 
featurekey="symbolFeature-0" 
transform="matrix(1.2724368210990902,0,0,1.2724368210990902,-17.857880023616918,-26.573189995382656)" 
fill="#c7c7c7"><title xmlns="http://www.w3.org/2000/svg">28-08-2015 - 
code</title><desc xmlns="http://www.w3.org/2000/svg">Created with 
Sketch.</desc><g xmlns="http://www.w3.org/2000/svg" stroke="none" 
stroke-width="1" fill="none" fill-rule="evenodd" 
xmlns:sketch="http://www.bohemiancoding.com/sketch/ns" 
sketch:type="MSPage"><g sketch:type="MSArtboardGroup" fill="#c7c7c7"><path 
d="M83.9420361,50.0031761 C84.0455988,49.2560782 83.807666,48.4723838 
83.2325201,47.8972379 L68.0203173,32.6850351 C67.0506811,31.7153989 
65.4688221,31.7109131 64.4959279,32.6838072 C63.5162509,33.6634843 
63.5235834,35.2346243 64.4971558,36.2081966 L78.2881642,49.9992051 
L64.4995875,63.7877818 C63.5299513,64.757418 63.5254654,66.339277 
64.4983596,67.3121712 C65.4780367,68.2918482 67.0491767,68.2845157 
68.022749,67.3109433 L83.2349518,52.0987406 C83.8046831,51.5290093 
84.0412048,50.7479135 83.9420361,50.0031761 L83.9420361,50.0031761 Z 
M14.0579639,50.0031761 C13.9544012,49.2560782 14.192334,48.4723838 
14.7674799,47.8972379 L29.9796827,32.6850351 C30.9493189,31.7153989 
32.5311779,31.7109131 33.5040721,32.6838072 C34.4837491,33.6634843 
34.4764166,35.2346243 33.5028442,36.2081966 L19.7118358,49.9992051 
L33.5004125,63.7877818 C34.4700487,64.757418 34.4745346,66.339277 
33.5016404,67.3121712 C32.5219633,68.2918482 30.9508233,68.2845157 
29.977251,67.3109433 L14.7650482,52.0987406 C14.1953169,51.5290093 
13.9587952,50.7479135 14.0579639,50.0031761 L14.0579639,50.0031761 Z 
M54.9901856,27.6944914 C55.3662544,26.661251 56.5053113,26.1272656 
57.5505036,26.5076845 C58.5884594,26.8854695 59.1258109,28.0271719 
58.7489561,29.062572 L43.0098144,72.3055086 C42.6337456,73.338749 
41.4946887,73.8727344 40.4494964,73.4923155 C39.4115406,73.1145305 
38.8741891,71.9728281 39.2510439,70.937428 L54.9901856,27.6944914 Z" 
sketch:type="MSShapeGroup"></path></g></g></g><g id="SvgjsG10200" 
featurekey="nameFeature-0" 
transform="matrix(0.8760287562066617,0,0,0.8760287562066617,105.61222168355742,-10.197525582002672)" 
fill="#c7c7c7"><path d="M3.8672 40 l0 -27.988 l5.0781 0 l0 27.988 l-5.0781 
0 z M28.38524140625 35.4883 l9.082 0 l0 4.5117 l-14.16 0 l0 -27.988 
l5.0781 0 l0 23.477 z M53.9579953125 35.4883 l9.082 0 l0 4.5117 l-14.16 0 
l0 -27.988 l5.0781 0 l0 23.477 z M74.45264921875 40 l0 -27.988 l5.0781 0 
l0 27.988 l-5.0781 0 z M112.388390625 40 l-2.1484 -6.0742 l-12.07 0 
l-2.1484 6.0742 l-5.2148 0 l10.313 -27.988 l6.1719 0 l10.293 27.988 
l-5.1953 0 z M99.693390625 29.628999999999998 l9.0234 0 l-4.5117 -12.754 z 
M163.5537421875 12.012 l5.0781 0 l0 27.988 l-5.0781 0 l0 -11.797 l-12.578 
0 l0 11.797 l-5.0977 0 l0 -27.988 l5.0977 0 l0 11.738 l12.578 0 l0 -11.738 
z M188.07176484375 35.4883 l9.082 0 l0 4.5117 l-14.16 0 l0 -27.988 l5.0781 
0 l0 23.477 z M220.83221875 40.39063 c-8.125 0 -14.18 -5.5664 -14.18 
-14.395 s6.0547 -14.355 14.18 -14.355 c8.0859 0 14.16 5.5273 14.16 14.355 
s-6.0742 14.395 -14.16 14.395 z M220.83221875 35.7031 c5.1172 0 9.1211 
-3.5742 9.1211 -9.707 c0 -6.0742 -4.0039 -9.668 -9.1211 -9.668 c-5.1367 0 
-9.1406 3.5938 -9.1406 9.668 c0 6.1328 4.0039 9.707 9.1406 9.707 z 
M251.50245390625 35.4883 l14.375 0 l0 4.5117 l-20.488 0 l0 -4.043 l14.141 
-19.453 l-14.102 0 l0 -4.4922 l20.117 0 l0 4.0625 z M296.6256953125 40 
l-2.1484 -6.0742 l-12.07 0 l-2.1484 6.0742 l-5.2148 0 l10.313 -27.988 
l6.1719 0 l10.293 27.988 l-5.1953 0 z M283.9306953125 29.628999999999998 
l9.0234 0 l-4.5117 -12.754 z"></path></g><g id="SvgjsG10201" 
featurekey="sloganFeature-0" 
transform="matrix(1.3083802524808057,0,0,1.3083802524808057,108.27175542868875,37.30809588730348)" 
fill="#e0fd71"><path d="M4.3652 20 l-3.8086 -13.926 l2.4316 0 l3.0078 
11.006 l3.291 -11.006 l2.0117 0 l3.2813 11.006 l3.0273 -11.006 l2.4219 0 
l-3.8086 13.926 l-2.9102 0 l-3.0176 -9.6484 l-3.0176 9.6484 l-2.9102 0 z 
M33.6396234375 8.154 l-5.4102 0 l0 3.8574 l4.7852 0 l0 2.0605 l-4.7852 0 
l0 3.8379 l5.4102 0 l0 2.0898 l-7.7734 0 l0 -13.926 l7.7734 0 l0 2.0801 z 
M47.152340625 12.685500000000001 c1.6113 0.42969 2.6953 1.5137 2.6953 
3.4766 c0 2.2754 -1.4746 3.8379 -4.1602 3.8379 l-5.5762 0 l0 -13.926 
l4.3652 0 c2.7539 0 4.3652 1.4746 4.3652 3.75 c0 1.2793 -0.57617 2.3242 
-1.6895 2.8613 z M44.486340625 8.047 l-2.1191 0 l0 3.916 l2.3535 0 c1.25 0 
1.9531 -0.88867 1.9531 -1.9922 c0 -1.0938 -0.76172 -1.9238 -2.1875 -1.9238 
z M45.267540625 17.9687 c1.582 0 2.3145 -0.9668 2.3145 -2.0605 c0 -1.1426 
-0.75195 -2.0996 -2.4023 -2.0996 l-2.8125 0 l0 4.1602 l2.9004 0 z 
M64.548840625 20 l0 -13.926 l4.7656 0 c4.3555 0 6.543 2.832 6.543 6.9531 
c0 4.1309 -2.1875 6.9727 -6.543 6.9727 l-4.7656 0 z M66.882840625 17.9102 
l2.334 0 c2.8516 0 4.1895 -1.8457 4.1895 -4.8828 c0 -3.0176 -1.3379 -4.873 
-4.1895 -4.873 l-2.334 0 l0 9.7559 z M89.9950921875 8.154 l-5.4102 0 l0 
3.8574 l4.7852 0 l0 2.0605 l-4.7852 0 l0 3.8379 l5.4102 0 l0 2.0898 
l-7.7734 0 l0 -13.926 l7.7734 0 l0 2.0801 z M105.187609375 6.074 l2.4805 0 
l-5.1367 13.926 l-2.5098 0 l-5.1074 -13.926 l2.4707 0 l3.9063 11.123 z 
M121.1611078125 8.154 l-5.4102 0 l0 3.8574 l4.7852 0 l0 2.0605 l-4.7852 0 
l0 3.8379 l5.4102 0 l0 2.0898 l-7.7734 0 l0 -13.926 l7.7734 0 l0 2.0801 z 
M129.966825 17.9102 l4.5996 0 l0 2.0898 l-6.9336 0 l0 -13.926 l2.334 0 l0 
11.836 z M146.3993734375 20.18555 c-4.0039 0 -7.0313 -2.7441 -7.0313 
-7.1582 c0 -4.4043 3.0273 -7.1484 7.0313 -7.1484 c3.9941 0 7.0215 2.7441 
7.0215 7.1484 c0 4.4141 -3.0273 7.1582 -7.0215 7.1582 z M146.3993734375 
18.0176 c2.6367 0 4.6973 -1.8262 4.6973 -4.9902 c0 -3.1348 -2.0605 -4.9707 
-4.6973 -4.9707 s-4.6973 1.8359 -4.6973 4.9707 c0 3.1641 2.0605 4.9902 
4.6973 4.9902 z M165.273440625 6.074 c2.6172 0 4.2871 1.9629 4.2871 4.3848 
c0 2.4609 -1.6699 4.3457 -4.2871 4.3457 l-3.2031 0 l0 5.1953 l-2.334 0 l0 
-13.926 l5.5371 0 z M164.902340625 12.8125 c1.5625 0 2.3828 -0.95703 
2.3828 -2.3828 c0 -1.377 -0.82031 -2.3828 -2.3828 -2.3828 l-2.832 0 l0 
4.7656 l2.832 0 z M183.3857171875 8.154 l-5.4102 0 l0 3.8574 l4.7852 0 l0 
2.0605 l-4.7852 0 l0 3.8379 l5.4102 0 l0 2.0898 l-7.7734 0 l0 -13.926 
l7.7734 0 l0 2.0801 z M197.308634375 20 l-3.6133 -6.2109 l-1.5039 0 l0 
6.2109 l-2.334 0 l0 -13.926 l4.834 0 c3.0176 0 4.3457 1.8066 4.3457 4.043 
c0 1.9434 -1.1523 3.252 -2.998 3.584 l4.0137 6.2988 l-2.7441 0 z 
M192.191434375 8.047 l0 4.0137 l2.1582 0 c1.709 0 2.4414 -0.80078 2.4414 
-1.9922 c0 -1.1816 -0.73242 -2.0215 -2.4414 -2.0215 l-2.1582 0 
z"></path></g></svg>
