<?xml version="1.0" standalone="no"?>
<!DOCTYPE svg PUBLIC "-//W3C//DTD SVG 20010904//EN"
 "http://www.w3.org/TR/2001/REC-SVG-20010904/DTD/svg10.dtd">
<svg version="1.0" xmlns="http://www.w3.org/2000/svg"
 width="700.000000pt" height="700.000000pt" viewBox="0 0 700.000000 700.000000"
 preserveAspectRatio="xMidYMid meet">
<metadata>
Created by potrace 1.14, written by Peter Selinger 2001-2017
</metadata>
<g transform="translate(0.000000,700.000000) scale(0.100000,-0.100000)"
fill="#020617" stroke="none">
<path d="M3280 6994 c-19 -2 -84 -9 -145 -14 -578 -56 -1180 -283 -1660 -625
-237 -169 -531 -446 -709 -670 -416 -521 -673 -1147 -748 -1820 -17 -155 -17
-575 0 -730 52 -469 198 -931 418 -1327 290 -523 731 -983 1239 -1294 439
-269 920 -432 1460 -496 145 -17 576 -17 730 0 822 91 1556 447 2131 1034 203
206 348 390 487 618 274 449 433 916 499 1465 16 136 16 592 0 730 -86 725
-352 1347 -803 1885 -122 145 -351 370 -494 484 -510 407 -1117 661 -1775 742
-117 15 -553 27 -630 18z m587 -2444 c54 -24 83 -70 83 -130 0 -54 -605 -1881
-639 -1929 -27 -38 -94 -65 -140 -56 -74 14 -121 71 -121 147 0 48 604 1874
636 1923 19 29 84 65 119 65 11 0 39 -9 62 -20z m-1221 -306 c61 -29 92 -92
79 -162 -6 -32 -44 -75 -278 -309 l-272 -273 272 -272 c294 -296 299 -303 273
-382 -14 -44 -69 -93 -114 -101 -75 -15 -92 -2 -429 334 -175 174 -327 333
-338 353 -24 47 -24 89 0 136 23 44 633 654 676 676 39 20 88 20 131 0z m1832
1 c46 -19 654 -622 683 -677 24 -47 24 -89 0 -136 -25 -48 -647 -667 -684
-681 -71 -27 -149 -1 -187 61 -22 36 -26 97 -9 131 6 12 131 142 277 289 l267
268 -272 272 c-232 233 -272 278 -278 310 -9 47 8 97 43 131 50 47 98 57 160
32z"/>
</g>
</svg>
