<?xml version="1.0" standalone="no"?>
<!DOCTYPE svg PUBLIC "-//W3C//DTD SVG 20010904//EN"
 "http://www.w3.org/TR/2001/REC-SVG-20010904/DTD/svg10.dtd">
<svg version="1.0" xmlns="http://www.w3.org/2000/svg"
 width="700.000000pt" height="700.000000pt" viewBox="0 0 700.000000 700.000000"
 preserveAspectRatio="xMidYMid meet">
<metadata>
Created by potrace 1.14, written by Peter Selinger 2001-2017
</metadata>
<g transform="translate(0.000000,700.000000) scale(0.100000,-0.100000)"
fill="#000000" stroke="none">
<path d="M3280 6994 c-19 -2 -84 -9 -145 -14 -639 -62 -1264 -315 -1795 -726
-149 -115 -481 -446 -595 -594 -410 -532 -653 -1132 -727 -1795 -17 -155 -17
-575 0 -730 75 -673 332 -1300 748 -1820 114 -143 339 -372 484 -494 537 -451
1163 -717 1885 -803 142 -17 586 -17 730 0 682 79 1268 318 1802 734 138 107
389 351 512 498 451 538 717 1162 803 1885 16 139 16 595 0 730 -77 629 -275
1158 -620 1649 -234 333 -577 668 -917 896 -460 308 -968 495 -1535 566 -117
15 -552 27 -630 18z m601 -2446 c41 -23 79 -85 79 -129 0 -13 -142 -449 -315
-968 -221 -665 -321 -951 -337 -968 -75 -81 -195 -67 -245 27 -13 24 -23 55
-23 69 0 39 626 1910 647 1934 53 59 127 73 194 35z m-1211 -314 c17 -15 37
-39 45 -55 18 -33 20 -101 4 -132 -6 -12 -129 -140 -272 -284 l-262 -263 267
-267 c286 -288 290 -293 274 -377 -17 -92 -131 -146 -214 -102 -33 18 -665
652 -681 683 -15 30 -14 99 3 131 16 30 650 664 681 681 11 6 43 11 72 11 41
0 58 -5 83 -26z m1818 12 c33 -18 665 -652 681 -683 15 -30 14 -99 -3 -131 -8
-15 -165 -176 -348 -359 -308 -306 -336 -332 -375 -338 -108 -17 -200 83 -172
189 9 35 53 83 277 309 l267 267 -267 268 c-285 286 -290 293 -274 374 19 95
130 148 214 104z"/>
</g>
</svg>
