<svg role="img" viewBox="0 0 24 24" xmlns="http://www.w3.org/2000/svg"><title>Vite</title><path fill="#646CFF" d="m8.286 10.578.512-8.657a.306.306 0 0 1 .247-.282L17.377.006a.306.306 0 0 1 .353.385l-1.558 5.403a.306.306 0 0 0 .352.385l2.388-.46a.306.306 0 0 1 .332.438l-6.79 13.55-.123.19a.294.294 0 0 1-.252.14c-.177 0-.35-.152-.305-.369l1.095-5.301a.306.306 0 0 0-.388-.355l-1.433.435a.306.306 0 0 1-.389-.354l.69-3.375a.306.306 0 0 0-.37-.36l-2.32.536a.306.306 0 0 1-.374-.316zm14.976-7.926L17.284 3.74l-.544 1.887 2.077-.4a.8.8 0 0 1 .84.369.8.8 0 0 1 .034.783L12.9 19.93l-.013.025-.015.023-.122.19a.801.801 0 0 1-.672.37.826.826 0 0 1-.634-.302.8.8 0 0 1-.16-.67l1.029-4.981-1.12.34a.81.81 0 0 1-.86-.262.802.802 0 0 1-.165-.67l.63-3.08-2.027.468a.808.808 0 0 1-.768-.233.81.81 0 0 1-.217-.6l.389-6.57-7.44-1.33a.612.612 0 0 0-.64.906L11.58 23.691a.612.612 0 0 0 1.066-.004l11.26-20.135a.612.612 0 0 0-.644-.9z"/><path fill="#ffbb13" d="M 8.286 10.578 l 0.512 -8.657 a 0.306 0.306 0 0 1 0.247 -0.282 L 17.377 0.006 a 0.306 0.306 0 0 1 0.353 0.385 l -1.558 5.403 a 0.306 0.306 0 0 0 0.352 0.385 l 2.388 -0.46 a 0.306 0.306 0 0 1 0.332 0.438 l -6.79 13.55 l -0.123 0.19 a 0.294 0.294 0 0 1 -0.252 0.14 c -0.177 0 -0.35 -0.152 -0.305 -0.369 l 1.095 -5.301 a 0.306 0.306 0 0 0 -0.388 -0.355 l -1.433 0.435 a 0.306 0.306 0 0 1 -0.389 -0.354 l 0.69 -3.375 a 0.306 0.306 0 0 0 -0.37 -0.36 l -2.32 0.536 a 0.306 0.306 0 0 1 -0.374 -0.316 z"/></svg>